<?xml version="1.0" encoding="utf-8"?>
<svg xmlns="http://www.w3.org/2000/svg" xmlns:xlink="http://www.w3.org/1999/xlink" version="1.1" x="0px" y="0px" viewBox="0 0 2000 2000" style="enable-;background-color:transparent;" xml:space="preserve">
<g id="BACKGROUND">
	<rect style="fill:none;" width="2000" height="2000" fill="none"/>
</g>
<g id="OBJECTS">
	<g>
		<path style="fill:#06193F;" d="M915.317,159.754c28.888-7.232,59.385-7.693,88.496-1.43c7.203,1.55,14.319,3.506,21.3,5.867    c7.04,2.381,13.894,5.251,20.773,8.052c13.314,5.422,27.257,10.818,41.866,10.552c8.067-0.147,15.762-2.363,23.372-4.861    c7.651-2.511,15.351-5.217,23.452-5.732c0.73-0.046,1.109-0.623,1.001-1.314c-2.321-14.901-12.567-28.129-26.065-34.699    c-7.409-3.606-15.44-4.807-23.627-4.567c-9.201,0.271-18.272,2.044-27.452,2.58c-8.963,0.524-17.791-0.426-25.764-4.815    c-7.423-4.086-13.647-9.959-20.839-14.4c-7.258-4.482-15.401-6.796-23.944-6.665c-8.502,0.13-16.886,2.44-24.521,6.114    c-16.339,7.862-28.501,22.074-39.509,36.057c-1.382,1.756-2.754,3.52-4.125,5.284c-0.215,0.276-0.267,0.583-0.217,0.865    c-1.586,0.355-3.172,0.713-4.749,1.108C913.469,158.076,914.018,160.079,915.317,159.754z"/>
		<path style="fill:#06193F;" d="M1007.259,382.697c8.785-8.367,14.71-14.009,20.634-19.651c-0.734-1.819-1.469-3.639-2.204-5.458    c-6.694,3.48-13.871,6.329-19.766,10.85C1004.298,369.684,1006.497,375.918,1007.259,382.697z"/>
		<path style="fill:#06193F;" d="M996.099,434.804c0.008-0.025,0.016-0.05,0.024-0.075c28.492-12.148,50.386-28.482,67.744-50.845    c9.492-12.229,9.047-32.532-0.808-47.117c-2.567,4.323-4.709,9.227-6.989,13.916c-8.548,7.934-19.824,12.989-28.534,20.721    c-11.459,10.172-18.995,23.854-24.706,37.886c-2.416,5.936-4.522,11.989-6.516,18.078c-1.386,2.936-2.746,5.924-4.073,8.994    c0.789-0.319,1.553-0.655,2.332-0.98C995.1,435.655,995.865,435.542,996.099,434.804z"/>
		<path style="fill:#06193F;" d="M1044.045,343.081c2.651-4.094,4.437-7.791,5.401-11.09c1.631-2.317,2.987-4.804,3.777-7.532    c1.462-5.045,0.398-10.283-2.797-14.427c-3.283-4.258-8.159-6.848-13.447-7.603c-5.964-0.85-11.892,0.5-17.377,2.815    c-2.899,1.224-5.719,2.642-8.684,3.707c-3.051,1.096-6.133,1.609-9.372,1.664c-3.354,0.057-6.716-0.206-10.066,0.073    c-3.027,0.252-5.97,0.982-8.795,2.091c-5.224,2.051-10.185,5.008-14.639,8.412c-4.079,3.117-7.818,6.781-10.531,11.17    c-3.046,4.927-4.552,10.704-3.745,16.48c0.817,5.841,3.842,11.306,8.411,15.043c1.026,0.839,2.504-0.622,1.468-1.469    c-1.531-1.253-2.844-2.681-3.943-4.23c1.24,1.619,2.894,3.253,5.057,4.909c5.071-19.213,16.835-29.299,34.3-34.576    C1017.786,322.862,1032.274,328.176,1044.045,343.081z"/>
		<path style="fill:#06193F;" d="M1091.978,411.863c7.096,22.516,23.55,37.397,38.953,53.301c8.148,8.414,18.572,5.997,23.334-4.535    c13.651-30.191,8.844-60.339-4.433-88.343c-7.696-16.231-19.37-33.615-34.06-42.76c-20.75-12.917-34.631-25.681-37.842-51.454    c-4.063-32.609-18.298-37.841-44.596-18.757c-19.5,14.15-40.454,24.026-64.097,28.598c-8.175,1.581-16.224,4.105-24.117,6.819    c-51.849,17.825-61.63,85.609-30.477,116.452c7.533,7.458,12.975,17.03,19.378,25.629c1.202,0.173,2.404,0.347,3.605,0.52    c-1.796-12.127-2.719-24.461-5.55-36.341c-8.574-35.972,13.443-83.896,45.278-98.577c19.917-9.185,40.377-8.407,60.595-3.626    c10.314,2.439,22.632,6.638,28.792,14.277c12.752,15.814,20.547,35.369,17.352,56.381    C1081.718,385.064,1087.564,397.859,1091.978,411.863z"/>
		<path style="fill:#06193F;" d="M1165.767,538.986c4.618-3.224,10.453-10.622,9.562-14.758    c-3.25-15.095-9.112-29.628-13.989-44.373c-1.677,0.306-3.355,0.612-5.033,0.918c-5.445,10.921-10.566,22.019-16.443,32.702    c-4.229,7.688-8.223,16.151-14.463,21.977c-29.828,27.848-63.32,47.016-106.088,48.341c-24.265,0.752-49.248,4.342-72.28,11.729    c-24.096,7.729-46.425,9.902-70.496,2.186c-10.253-3.287-21.665-2.959-32.836-4.308c0,3.565-0.364,4.721,0.052,5.392    c26.185,42.184,64.503,69.56,109.638,87.845c4.723,1.913,13.677-2.293,18.704-6.192c23.985-18.602,46.433-39.272,71.033-56.974    C1083.413,594.484,1125.063,567.402,1165.767,538.986z"/>
		<path style="fill:#06193F;" d="M1105.12,193.372c-24.908,2.577-46.181-5.239-67.757-15.735    c-12.623-6.141-26.579-12.685-40.141-13.159c-39.802-1.391-76.113,11.33-104.771,39.29    c-12.135,11.839-20.134,28.335-28.416,43.582c-7.411,13.644-11.082,29.424-19.121,42.604    c-19.171,31.431-4.893,79.023,33.718,96.932c-1.356-15.088,0.647-29.53-4.335-40.915c-11.871-27.126-9.972-48.499,10.431-70.219    c4.307-4.585,8.085-9.909,11.076-15.449c14.52-26.897,41.638-37.651,70.846-27.878c4.1,1.372,9.372,3.878,12.599,2.453    c17.815-7.863,31.48-1.573,43.521,11.562c2.682-1.454,4.823-2.589,6.941-3.766c32.396-18.006,51.738-9.539,60.827,26.69    c0.956,3.812,2.31,7.748,2.157,11.574c-0.68,17.025,9.505,24.889,23.202,32.223c10.842,5.805,20.968,14.3,29.046,23.646    c17.707,20.489,27.948,44.561,31.841,71.559c0.074,3.224,0.023,6.454-0.171,9.682c-1.015,16.932-8.849,33.01-8.593,49.979    c0.12,7.98,2.583,15.221,6.806,21.926c3.343,5.307,9.946,12.177,8.89,18.973c-0.672,4.321,2.701,9.318,7.663,7.663    c23.113-7.707,43.104-23.682,55.177-44.936c13.116-23.09,16.063-51.661,8.208-77.01c-7.639-24.653-26.925-43.168-35.637-67.194    c-9.217-25.419,1.774-54.537-13.155-78.475c-7.023-11.262-17.556-16.799-30.552-18.043c-4.781-0.458-10.396-0.076-15.79-0.424    c-5.405-4.074-10.195-9.725-13.087-15.19C1137.223,197.696,1122.387,191.586,1105.12,193.372z"/>
		<path style="fill:#06193F;" d="M885.265,483.248c16.428-8.739,31.725-16.877,49.006-26.071    c-13.963-20.661-27.041-40.01-41.622-61.585C884.186,425.044,876.262,452.643,885.265,483.248z"/>
		<path style="fill:#06193F;" d="M971.838,447.992c5.01-6.46,9.967-11.101,12.73-16.805c4.674-9.649,6.714-20.713,12.142-29.824    c7.085-11.892,0.828-15.513-8.542-19.055c-12.931-4.887-25.761-10.041-39.799-15.537    C938.304,395.331,950.149,420.352,971.838,447.992z"/>
		<path style="fill:#06193F;" d="M1034.984,349.909c-8.672-13.007-19.26-14.417-31.82-10.768    c-13.693,3.978-25.426,9.614-28.421,27.15c6.707,1.434,12.738,2.725,20.566,4.399    C1001.535,350.314,1017.618,349.368,1034.984,349.909z"/>
		<path style="fill:#06193F;" d="M991.398,245.83c-9.855-1.126-20.225,0.07-29.613-2.506c-20.616-5.657-39.771,1.085-51.937,19.439    c-6.433,9.705-13.625,18.972-21.125,27.891c-11.062,13.154-12.445,27.558-8.16,44.603c34.28-49.628,34.781-49.72,96.05-65.813    c12.028-3.159,23.447-8.635,35.147-13.042c-0.022-2.203-0.045-4.406-0.067-6.609C1004.932,248.436,998.224,246.61,991.398,245.83z    "/>
		<path style="fill:#06193F;" d="M842.23,690.044c6.156,21.119,30.24,29.638,48.776,17.891c9.884-6.264,18.915-13.874,29.194-21.517    c-3.825-2.807-6.864-5.129-9.994-7.319c-29.212-20.431-56.423-43.05-75.272-73.851c-4.578-7.481-9.479-11.06-18.04-12.354    c-29.874-4.513-52.725-18.492-67.122-46.749c-14.147-27.767-31.597-53.832-46.663-81.16    c-6.184-11.217-14.664-15.693-26.402-13.668c-14.952,2.579-29.708,6.294-46.556,9.955c58.568,57.351-1.927,120.278,11.282,168.565    c2.811,10.274,7.049,20.622,12.784,29.551c26.171,40.743,115.145,25.408,162.958,15.841    C830.799,672.504,838.156,676.068,842.23,690.044z"/>
		<path style="fill:#06193F;" d="M852.048,528.279c20.73,6.953,39.074,12.257,56.743,19.261c19.442,7.707,38.705,8.411,57.218-0.494    c49.802-23.957,99.175-48.807,145.452-71.688c-13.611-27.722-26.016-52.989-38.59-78.6c-0.513,0.423-2.128,1.403-3.292,2.767    c-26.832,31.479-61.71,49.91-100.719,61.036c-34.615,9.873-65.004,27.68-94.121,48.02    C867.287,513.787,860.9,520.517,852.048,528.279z"/>
		<path style="fill:#06193F;" d="M674.043,423.813c14.766,8.932,25.698,22.636,35.495,36.573    c4.702,6.689,9.222,13.504,13.931,20.188c0.365,0.713,0.729,1.426,1.094,2.139c0.104-0.054,0.208-0.107,0.312-0.161    c0.078,0.109,0.154,0.217,0.232,0.326c0.051,0.183,0.163,0.352,0.348,0.49c0.317,0.441,0.624,0.889,0.944,1.328    c0.449,0.618,1.236,0.533,1.673,0.144c15.329,8.524,31.573,15.351,48.389,20.333c1.272,0.733,2.566,1.488,3.891,2.28    c-0.213-0.449-0.427-0.886-0.64-1.333c0.462,0.13,0.919,0.276,1.382,0.403c1.291,0.354,1.841-1.648,0.552-2.002    c-1.053-0.289-2.094-0.613-3.143-0.916c-15.827-32.878-31.721-61.09-42.524-91.119c-10.863-30.195-15.433-62.31-9.397-97.678    c0.37-0.272,0.399-0.777,0.201-1.194c0.216-1.218,0.442-2.439,0.683-3.664c-1.25,1.141-2.489,2.272-3.723,3.399    c-9.057,2.014-17.09,6.998-24.386,12.612c-7.651,5.887-14.966,12.277-22.207,18.658c-14.146,12.463-27.855,25.901-37.962,41.94    c-5.576,8.849-9.917,18.472-12.424,28.642c-0.179,0.728,0.499,1.539,1.277,1.277C643.598,411.234,660.373,415.543,674.043,423.813    z"/>
		<path style="fill:#06193F;" d="M733.393,494.594c3.418,2.677,6.53,8.438,10.191,13.825c6.358,9.353,14.463,17.789,19.351,27.821    c15.917,32.667,42.82,43.529,77.258,43.486c16.474-0.02,32.906,4.433,49.442,5.382c13.922,0.8,29.358,3.08,41.677-1.658    c28.677-11.029,58.225-14.34,88.134-16.259c57.307-3.677,97.776-31.204,122.127-82.662c-0.895-1.584-1.79-3.168-2.685-4.752    c-17.419,7.342-35.292,13.778-52.159,22.225c-29.897,14.972-58.601,32.414-88.886,46.495    c-30.069,13.98-60.867,23.999-95.252,10.541c-35.533-13.907-72.602-23.844-108.453-37.003    C773.335,514.398,753.605,503.838,733.393,494.594z"/>
		<path style="fill:#06193F;" d="M791.063,501.059c3.132,5.611,10.428,9.486,16.555,12.727    c19.315,10.217,35.876,6.721,50.029-10.484c4.872-5.922,12.039-9.956,18.839-15.398c-10.993-26.942-10.001-54.552-4.722-82.533    c0.66-3.499-2.24-8.458-4.834-11.647c-12.55-15.431-27.045-29.493-38.039-45.922c-14.668-21.919-11.913-44.457,3.187-66.17    c6.084-8.749,12.199-18.685,14.124-28.87c0.621-3.287,1.358-6.497,2.191-9.648c10.219-17.8,21.353-35.135,34.186-51.175    c7.384-9.229,15.322-18.011,23.867-26.18c0.397-0.38,0.401-1.089,0-1.468c-11.977-11.325-27.965-17.971-44.384-18.968    c-16.144-0.98-32.137,3.881-45.046,13.613c-12.484,9.412-21.923,22.835-25.937,37.998c-2.433,9.191-3.047,18.734-5.18,27.987    c-1.063,4.609-2.52,9.123-4.711,13.326c-2.099,4.026-4.727,7.751-7.5,11.336c-5.599,7.235-11.638,14.081-16.039,22.158    c-4.132,7.586-7.049,15.838-8.61,24.336c-6.698,18.919-10.661,37.651-9.918,57.613    C741.149,408.175,765.338,454.977,791.063,501.059z"/>
		<path style="fill:#06193F;" d="M926.088,758.753c40.021-26.221,29.156-55.552,29.156-55.552    c-15.358-11.769-27.219-10.943-38.179,1.524c-2.566,2.919-6.001,5.054-8.886,7.714c-8.657,7.982-17.033,12.987-25.637,14.988    c-1.67,0.342-3.309,0.613-4.915,0.812c-9.992,0.983-20.411-2.005-32.028-9.06c-1.864-1.132-3.559-1.918-5.15-2.382    c-6.957-5.344-10.966-10.486-10.966-10.486s-37.261,15.18-45.542,60.722c-8.28,45.542,19.321,77.283,19.321,77.283    s2.76-17.941,28.981-49.682C858.465,762.893,886.066,784.974,926.088,758.753z"/>
		<path style="fill:#06193F;" d="M1360.14,422.207c-8.656-26.682-32.37-44.623-42.422-70.478    c-6.109-15.715-1.377-31.355,0.04-47.438c1.393-15.806-2.485-31.043-15.513-41.018c-12.486-9.56-29.6-11.599-44.051-5.627    c-14.3,5.909-25.103,18.999-29.675,33.643c-5.325,31.159,21.799,54.029,36.088,76.718c14.536,23.083,17.387,52.357,9.29,78.242    c-4.576,14.627-12.448,28.059-23.522,38.707c-3.091,2.972-2.755,7.136,0.416,9.857c23.281,19.973,59.475,21.619,84.409,3.749    C1358.537,481.834,1368.964,449.409,1360.14,422.207z"/>
		<path style="fill:#06193F;" d="M1276.861,854.44c0,0-142.84,80.008-168.175,118.009c-27.54,41.31,14.439,134.082,14.439,134.082    l-23.924,25.696c0,0-18.025-89.188-21.843-125.077c-3.558-33.445-7.117-66.891-10.675-100.337    c-0.873-8.208-1.746-16.416-2.62-24.624c0.3-3.529,0.634-7.061,1.042-10.6c2.372-20.558,0.392-41.438-1.27-62.29    c-3.571-7.953-6.461-16.297-8.257-24.631c-1.446-6.706-2.394-14.881,0.474-21.14c2.666-1.008,5.793-1.207,8.391-0.916    c7.805,0.876,14.533,6.5,20.842,10.736c7.499,5.034,15.438,9.104,24.404,10.714c7.475,1.341,18.4,2.985,23.132-4.597    c4.598-7.367,7.15-17.209,9.764-25.416c2.916-9.157,5.314-18.48,7.181-27.908c1.689-8.526,2.935-17.128,3.781-25.768    c4.519-20.928,12.992-40.14,31.57-52.619c20.355-13.672,45.952-15.995,66.654-28.938c20.766-12.983,32.862-42.803,28.518-66.686    c-1.855-10.201-6.743-20.169-12.36-28.79c-1.415-2.172-3.174-4.788-5.224-7.257c-11.862-4.004-24.479-5.167-37.419-2.155    c-8.52,1.983-16.508,5.342-24.01,9.629c-4.534,5.175-9.362,9.961-14.751,13.981c-7.084,5.285-14.201,10.527-21.338,15.743    c-0.031,0.033-0.063,0.066-0.094,0.099c-0.468,0.496-0.97,0.836-1.483,1.046c-44.73,32.647-90.386,64.062-135.992,95.497    c-15.066,10.384-28.203,22.456-40.332,35.707c-1.431,0.637-2.601,1.899-3.093,3.913c-5.794,13.637-0.497,27.046,9.266,38.492    c1.362,1.781,2.829,3.497,4.397,5.134c7.051,7.362,15.453,12.589,24.58,16.264c23.222,49.514,30.636,105.769,21.112,159.588    c-1.889-1.01-3.639-1.945-5.282-2.824c-7.816-7.985-19.426-11.882-30.703-9.746c-0.948,0.18-0.922,1.438-0.248,1.898    c11.938,8.146,21.153,18.567,28.444,30.333c3.765,10.863,6.672,22.025,9.09,33.262c3.507,16.302,6.121,32.789,8.922,49.223    l8.829,51.801c3.199,18.768,6.398,37.537,9.597,56.305c0.272,2.091,0.543,4.18,0.815,6.272c0.525,6.307,0.797,12.632,0.69,18.98    c-0.21,12.38-2.024,24.691-6.105,36.386c-4.347-9.957-13.412-17.608-24.082-19.98c-0.933-0.207-1.552,0.704-1.173,1.525    c11.572,25.042,13.815,54.109,6.71,80.728c-0.01,0.028-0.021,0.056-0.031,0.084c-8.511,17.282-17.596,34.431-25.319,51.882    c-0.611,1.381-1.252,2.753-1.905,4.123c-0.794,1.249-1.587,2.499-2.369,3.757c-4.995,8.038-9.495,16.305-13.509,24.823    c-3.492,0.857-7.114-0.023-10.542-3.952c-3.167-3.629-5.033-8.271-7.053-12.582c-1.623-3.463-3.341-6.88-5.143-10.253    c4.205-33.554,8.613-68.287,4.199-101.784c-1.929-14.639-6.422-29.269-16.337-40.544c-5.672-6.451-12.951-11.346-19.791-16.45    c-3.535-2.638-7.07-5.275-10.604-7.913c-36.17-32.417-107.096-65.393-116.072-69.502c-0.835-0.438-1.662-0.894-2.504-1.319    c-0.299-0.151-0.626-0.146-0.9-0.032c-0.009-0.045-0.021-0.09-0.03-0.135c0,0-0.019,0.064-0.049,0.167    c-0.302,0.156-0.521,0.459-0.526,0.864c-0.004,0.355-0.008,0.71-0.012,1.065c-3.451,12.822-20.152,82.461,4.789,147.308    c27.601,71.763,122.858,72.052,143.542,89.848c0.003-0.023,0.005-0.046,0.008-0.069c3.207,5.125,6.07,10.465,8.559,15.975    c7.366,16.31,11.474,34.119,12.044,52.002c-0.002,0.011-0.003,0.022-0.005,0.033c-6.457,19.45-12.14,39.206-18.26,58.694    c-4.979,15.854-10.333,31.682-15.353,47.598c-1.395,6.824-2.718,13.664-3.938,20.523c-6.431,36.158-20.011,72.312-19.286,109.01    c0.245,12.361,0.643,24.728,0.926,37.094c1.766,12.772,2.892,25.637,3.546,38.509c2.156,42.411,10.717,84.853,7.244,127.132    c-2.517,30.643-5.968,63.316-18.512,91.904c11.84,1.937,23.214,5.917,33.642,11.843c3.005-5.607,5.292-11.612,7.052-17.818    c4.14-27.785,6.209-55.801,6.892-83.874c-0.454-24.194-2.224-48.434-4.035-72.393c-1.176-15.557-7.026-81.967-5.178-97.901    c2.456-21.181,9.399-42.449,23.12-58.501c0.699-1.092,1.424-2.171,2.198-3.228c7.317-9.996,16.984-17.986,26.456-25.844    c0.979-0.813-0.27-2.071-1.258-1.631c-9.672,4.312-19.343,8.624-29.015,12.936c-3.534,1.576-11.196,6.591-14.76,2.884    c-1.486-1.546-1.681-4.063-1.94-6.072c-0.337-2.604-0.633-5.213-0.897-7.825c-0.346-3.426-0.609-6.86-0.835-10.296    c0.098-6.116,0.539-12.191,1.654-18.187c7.232-38.89,16.156-77.685,27.337-115.971c9.11-31.196,21.057-62,34.337-92.255    c21.524-49.037,50.782-96.049,61.295-147.902c2.025-5.526,3.818-11.135,5.392-16.803c11.188-16.075,23.858-31.098,40.39-41.97    c0.556-0.365,1.123-0.709,1.683-1.066c41.992-12.349,106.682-28.42,129.768-88.444    C1295.66,951.817,1276.861,854.44,1276.861,854.44z M1025.203,750.49c0.44,0.16,0.88,0.322,1.323,0.476    c1.321,4.038,2.687,8.072,4.058,12.104C1028.901,758.833,1027.105,754.64,1025.203,750.49z M1042.023,799.039    c1.95,7.261,3.573,14.552,4.657,21.896c0.643,4.354,1.096,8.728,1.43,13.122C1046.85,822.269,1044.816,810.567,1042.023,799.039z     M920.567,1230.731c-19.536-17.365-91.801-145.127-90.75-145.892c1.079-0.786,30.04,46.426,49.349,74.129    c4.041,5.797,8.559,11.752,13.354,17.728c1.81,3.14,3.67,6.247,5.577,9.317c14.325,23.061,31.183,44.387,46.613,66.694    C937.182,1245.248,928.732,1237.988,920.567,1230.731z M1160.825,1041.136c-12.447,11.064-28.838,32.609-29.724,51.217    c-2.025-9.114,1.369-18.759,5.357-26.702c3.939-7.848,9.098-15.009,15.009-21.503c19.687-21.634,37.18-48.329,54.563-73.269    c20.482-29.387,56.312-85.122,57.287-84.19C1237.525,954.474,1182.213,1022.124,1160.825,1041.136z"/>
	</g>
</g>
</svg>
