<svg width="400" height="400" viewBox="0 0 400 400" fill="none" xmlns="http://www.w3.org/2000/svg">
  <title>SVG Text and Fonts Sample - ConvertICO</title>
  <desc>Sample SVG with various text styles, fonts, and text paths. Free download at ConvertICO.com</desc>

  <defs>
    <linearGradient id="logoGradient" x1="35" y1="250" x2="465" y2="250" gradientUnits="userSpaceOnUse">
      <stop stop-color="#EF4362"/>
      <stop offset="0.5625" stop-color="#F04E63"/>
      <stop offset="1" stop-color="#F16667"/>
    </linearGradient>
    <linearGradient id="textGradient" x1="0%" y1="0%" x2="100%" y2="0%">
      <stop offset="0%" stop-color="#e64e4e"/>
      <stop offset="50%" stop-color="#339966"/>
      <stop offset="100%" stop-color="#3399cc"/>
    </linearGradient>
    <path id="curvePath" d="M40 220 Q200 160 360 220" fill="none"/>
  </defs>

  <rect width="400" height="400" fill="#f5f7fa"/>
  <rect x="0" y="0" width="400" height="50" fill="#1a252f"/>

  <g transform="translate(8, 5) scale(0.08)">
    <path d="M250 465C368.741 465 465 368.741 465 250C465 131.259 368.741 35 250 35C131.259 35 35 131.259 35 250C35 368.741 131.259 465 250 465Z" fill="url(#logoGradient)"/>
    <path d="M381.7 222.9C394.9 222.9 405.6 212.2 405.6 199C405.6 185.8 394.9 175.1 381.7 175.1C368.5 175.1 357.8 185.8 357.8 199C357.8 212.2 368.5 222.9 381.7 222.9Z" fill="white"/>
    <path d="M365.295 294.67C379.597 286.027 359.018 260.022 373.163 248.835C387.308 237.647 402.765 242.338 408.593 251.058C413.021 262.52 412.818 272.435 404.875 278.379C396.932 284.323 411.106 292.461 396.366 308.906C393.517 315.686 395.157 313.774 395.356 324.998C395.555 336.222 379.73 360.586 354.619 346.39C329.509 332.193 350.993 303.313 365.295 294.67Z" fill="white"/>
    <path d="M359 154.2C350.1 164 335.1 165.2 324.8 156.9C322.2 154.8 319.4 152.8 316.6 150.9C274.1 121.5 212.7 124.7 173.5 158.4C164.8 165.7 157.2 174.1 150.9 183.5C121.5 226 124.7 287.4 158.4 326.6C165.7 335.3 174.1 342.9 183.5 349.2C221.1 375.2 273.5 375.7 312.2 352.2C321.5 346.5 333.4 347.8 341.5 355.1C344.9 358.1 348.3 361.3 351.6 364.2C357.4 369.5 357.1 378.7 350.9 383.5C239.4 469.7 69 379.6 83.5 234.7C93.8 96.1 269.1 33.7 365.5 128.8C370.3 133.6 370.6 141.3 366.1 146.3L359 154.2Z" fill="white"/>
    <ellipse cx="389.5" cy="263" rx="22.5" ry="23" fill="white"/>
  </g>

  <text x="52" y="32" font-family="Arial, sans-serif" font-size="18" font-weight="bold" fill="#ffffff">CONVERTICO</text>
  <text x="185" y="32" font-family="Arial, sans-serif" font-size="12" fill="#999999">Typography Sample</text>

  <text x="20" y="76" font-family="Arial, sans-serif" font-size="11" font-weight="100" fill="#333333">Thin (100)</text>
  <text x="20" y="93" font-family="Arial, sans-serif" font-size="11" font-weight="400" fill="#333333">Regular (400)</text>
  <text x="20" y="110" font-family="Arial, sans-serif" font-size="11" font-weight="700" fill="#333333">Bold (700)</text>
  <text x="20" y="127" font-family="Arial, sans-serif" font-size="11" font-weight="900" fill="#333333">Black (900)</text>

  <text x="150" y="76" font-family="Georgia, serif" font-size="11" fill="#333333">Serif (Georgia)</text>
  <text x="150" y="93" font-family="Arial, sans-serif" font-size="11" fill="#333333">Sans-Serif (Arial)</text>
  <text x="150" y="110" font-family="Courier New, monospace" font-size="11" fill="#333333">Monospace</text>
  <text x="150" y="127" font-family="Georgia, serif" font-size="11" font-style="italic" fill="#333333">Italic Style</text>

  <text x="290" y="76" font-family="Arial, sans-serif" font-size="11" text-decoration="underline" fill="#333333">Underlined</text>
  <text x="290" y="93" font-family="Arial, sans-serif" font-size="11" text-decoration="line-through" fill="#333333">Strikethrough</text>
  <text x="290" y="110" font-family="Arial, sans-serif" font-size="11" fill="none" stroke="#e64e4e" stroke-width="0.5">Outlined</text>

  <text x="200" y="165" font-family="Arial, sans-serif" font-size="28" font-weight="bold" text-anchor="middle" fill="url(#textGradient)">GRADIENT TEXT</text>

  <text font-family="Arial, sans-serif" font-size="13" fill="#3399cc" font-weight="600">
    <textPath href="#curvePath" startOffset="50%" text-anchor="middle">Text Following a Curved Path</textPath>
  </text>

  <text x="200" y="260" font-family="Arial, sans-serif" font-size="14" text-anchor="middle" fill="#666666">&#xA9; &#xAE; &#x2122; &#x20AC; &#xA3; &#xA5; &#x2022; &#x2192; &#x2605; &#x2665;</text>

  <text x="20" y="295" font-family="Arial, sans-serif" font-size="10" letter-spacing="0" fill="#666666">Normal spacing</text>
  <text x="20" y="312" font-family="Arial, sans-serif" font-size="10" letter-spacing="3" fill="#666666">Wide spacing</text>
  <text x="20" y="329" font-family="Arial, sans-serif" font-size="10" letter-spacing="-1" fill="#666666">Tight spacing</text>

  <text x="280" y="295" font-family="Arial, sans-serif" font-size="10" fill="#333333">
    <tspan x="280" dy="0">Multi-line text</tspan>
    <tspan x="280" dy="14" font-weight="bold">with tspan</tspan>
    <tspan x="280" dy="14" fill="#e64e4e">and styles</tspan>
  </text>

  <rect x="0" y="368" width="400" height="32" fill="#1a252f"/>
  <text x="200" y="389" font-family="Arial, sans-serif" font-size="11" text-anchor="middle" fill="#3399cc">convertico.com/samples/svg</text>
</svg>
